HIERARCHY
ROOT Hips
{
  OFFSET 0 0 0
  CHANNELS 6 Xposition Yposition Zposition Zrotation Yrotation Xrotation
  JOINT LeftThigh
  {
    OFFSET 8.409438 0 -5.917753
    CHANNELS 3 Zrotation Yrotation Xrotation
    JOINT LeftLeg
    {
      OFFSET 0 0 -42.358652
      CHANNELS 3 Zrotation Yrotation Xrotation
      JOINT LeftFoot
      {
        OFFSET 0 0 -39.357303
        CHANNELS 3 Zrotation Yrotation Xrotation
      }
    }
  }
  JOINT RightThigh
  {
    OFFSET -8.409438 0 -5.917753
    CHANNELS 3 Zrotation Yrotation Xrotation
    JOINT RightLeg
    {
      OFFSET 0 0 -42.358652
      CHANNELS 3 Zrotation Yrotation Xrotation
      JOINT RightFoot
      {
        OFFSET 0 0 -39.357303
        CHANNELS 3 Zrotation Yrotation Xrotation
      }
    }
  }
  JOINT SpineLow
  {
    OFFSET 0 0 4.719101
    CHANNELS 3 Zrotation Yrotation Xrotation
    JOINT SpineMid
    {
      OFFSET 0 0 12.899191
      CHANNELS 3 Zrotation Yrotation Xrotation
      JOINT Chest
      {
        OFFSET 0 0 12.899191
        CHANNELS 3 Zrotation Yrotation Xrotation
        JOINT LeftShoulder
        {
          OFFSET 7.550562 1.41573 9.438202
          CHANNELS 3 Zrotation Yrotation Xrotation
          JOINT LeftArm
          {
            OFFSET 9.155056 0 4.247191
            CHANNELS 3 Zrotation Yrotation Xrotation
            JOINT LeftForearm
            {
              OFFSET 0 0 25.771955
              CHANNELS 3 Zrotation Yrotation Xrotation
              JOINT LeftHand
              {
                OFFSET 0 0 25.197169
                CHANNELS 3 Zrotation Yrotation Xrotation
              }
            }
          }
        }
        JOINT RightShoulder
        {
          OFFSET -7.550562 1.41573 9.438202
          CHANNELS 3 Zrotation Yrotation Xrotation
          JOINT RightArm
          {
            OFFSET -9.155056 0 4.247191
            CHANNELS 3 Zrotation Yrotation Xrotation
            JOINT RightForearm
            {
              OFFSET 0 0 -25.771955
              CHANNELS 3 Zrotation Yrotation Xrotation
              JOINT RightHand
              {
                OFFSET 0 0 -25.197169
                CHANNELS 3 Zrotation Yrotation Xrotation
              }
            }
          }
        }
        JOINT Neck
        {
          OFFSET 0 0 15.101124
          CHANNELS 3 Zrotation Yrotation Xrotation
          JOINT Head
          {
            OFFSET 0 0 11.325843
            CHANNELS 3 Zrotation Yrotation Xrotation
            End Site
            {
              OFFSET 0 0 14.157303
            }
          }
        }
      }
    }
  }
}
MOTION
Frames: 11
Frame Time: 0.0
0.0  93.25843  0.0  -7.968566  -25.517816  -88.92954  39.393396  -29.767903  -26.05291  -5.463994  11.749141  17.639338  2.539905  0.196371  2.344733  -9.173621  11.850128  2.757764  -19.572088  3.628111  20.606727  -5.784682  -2.738995  -3.400164  0.950865  -1.426724  -0.091705  2.607289  -3.895497  -0.307092  2.607289  -3.895496  -0.307092  -24.532045  16.973492  -1.277093  -145.964795  62.854675  -85.558361  -30.039644  -8.071774  73.080835  34.834015  -14.618326  16.55974  -7.227364  -11.074844  15.43321  111.945176  27.305387  38.688746  -4.600778  -15.490029  -113.419166  66.682201  24.024198  13.213185  18.249242  2.021401  7.803048  13.662395  1.751344  5.797429  
0.0  93.25843  0.0  -7.853333  -25.380066  -88.974541  38.337344  -30.079959  -26.179023  -3.944481  11.844612  18.093093  2.49287  0.242225  2.267425  -8.609299  11.810725  3.287175  -20.406935  3.371074  19.906085  -5.786781  -2.574026  -3.348979  0.824531  -1.464389  -0.135337  2.264514  -3.997589  -0.420327  2.264514  -3.997589  -0.420327  -23.546159  17.37569  -1.102417  -146.628884  63.247321  -85.860713  -29.619677  -8.311311  72.959265  35.177657  -15.129992  16.257283  -5.939971  -10.718757  15.708139  111.999117  27.816909  38.269693  -5.165963  -15.494192  -113.330501  66.905808  23.85126  13.252475  18.590621  2.093735  8.038134  13.916789  1.817288  5.970771  
0.0  93.25843  0.0  -7.727162  -24.821425  -88.91742  37.875591  -30.175256  -26.22019  -3.09078  11.988155  18.116331  2.542628  0.265092  2.262236  -8.503874  11.837263  3.675336  -20.742516  3.138924  19.261371  -6.185856  -2.565261  -3.243417  0.821314  -1.454561  -0.147359  2.256344  -3.970341  -0.452683  2.256344  -3.970341  -0.452683  -23.697166  17.390382  -1.153264  -147.300375  63.528307  -85.987866  -29.465934  -8.789245  72.695385  35.230598  -15.390475  16.29882  -5.589162  -10.614801  15.738884  111.878751  28.76153  37.858896  -5.794241  -15.250635  -113.180165  66.990834  23.572718  13.208259  18.353183  2.142252  7.982579  13.738137  1.848861  5.92822  
0.0  93.25843  0.0  -7.565733  -24.617326  -88.929447  37.765001  -30.228324  -26.366588  -2.636175  12.388375  17.921759  2.562554  0.346359  2.283831  -8.179319  11.899854  4.168858  -21.169386  2.772704  18.511496  -6.588211  -2.514433  -3.11321  0.869933  -1.43151  -0.141025  2.388786  -3.907211  -0.437428  2.388786  -3.90721  -0.437428  -23.742538  17.261152  -1.171967  -148.156632  63.765662  -86.24283  -29.44293  -9.240082  72.427329  35.184093  -15.605408  16.371789  -6.084173  -10.765082  15.244697  112.60687  29.131553  37.665203  -6.50008  -14.874612  -113.027667  67.135186  23.175775  13.236082  17.903172  2.072416  7.779969  13.402157  1.78447  5.779491  
0.0  93.25843  0.0  -7.427183  -23.898996  -88.839016  37.590409  -30.031474  -26.652642  -2.192286  12.530908  18.009376  2.72534  0.376561  2.275345  -8.420102  11.981157  4.525792  -21.236623  2.454141  17.795778  -6.979278  -2.479257  -2.982549  0.879307  -1.412467  -0.163181  2.41555  -3.85429  -0.497891  2.41555  -3.85429  -0.497891  -23.963125  17.180363  -1.15771  -149.148665  63.998011  -86.51511  -29.542645  -9.721944  72.082121  35.053755  -15.706688  16.503803  -5.800042  -10.767131  15.302284  112.355446  30.522369  37.445275  -7.105798  -14.593399  -112.996139  67.406222  22.784064  13.293975  17.592756  2.107664  7.703786  13.169038  1.804708  5.722116  
0.0  93.25843  0.0  -7.056546  -24.540915  -89.045977  38.871907  -29.655318  -26.719803  -2.007117  12.755212  18.057266  2.103813  0.744653  1.786202  -7.383314  12.307884  5.080758  -21.42116  2.085444  16.996536  -7.080018  -2.299744  -2.870037  0.980176  -1.387474  -0.16753  2.69153  -3.784986  -0.514637  2.69153  -3.784986  -0.514637  -23.294718  17.367123  -0.942095  -150.244354  64.244928  -86.827714  -29.740001  -10.154721  71.709194  34.916146  -15.720034  16.600543  -4.812034  -10.698106  15.477161  112.087755  31.884824  37.255994  -7.545365  -14.482147  -113.046839  67.723526  22.441862  13.234332  17.419667  2.111925  7.678297  13.039222  1.804955  5.703346  
0.0  93.25843  0.0  -6.943804  -23.940273  -88.789286  39.409778  -29.080334  -27.349574  -1.902182  12.892496  18.174313  2.511454  0.879352  1.716432  -7.452606  12.38023  5.338873  -21.509119  1.754512  16.306205  -7.525548  -2.275854  -2.757895  1.051377  -1.363111  -0.210071  2.888467  -3.715943  -0.634003  2.888467  -3.715943  -0.634003  -23.627186  17.217451  -1.014743  -151.654019  64.488533  -87.401456  -29.98628  -10.600596  71.280072  34.833673  -15.684991  16.61012  -4.539141  -10.900129  15.294265  111.597551  33.323289  36.911864  -7.79194  -14.540163  -113.082197  67.969216  22.17858  13.127849  16.97465  2.136426  7.57509  12.705386  1.814778  5.626444  
0.0  93.25843  0.0  -6.523175  -24.570959  -88.83283  41.110973  -28.291297  -27.601373  -1.763455  12.988074  18.296162  2.770373  1.049777  1.74992  -6.345563  12.762082  5.717156  -21.844848  1.460973  15.587494  -7.725158  -2.163773  -2.628564  1.310584  -1.294525  -0.230547  3.597809  -3.524717  -0.70077  3.597809  -3.524716  -0.70077  -23.834595  17.11704  -1.050104  -153.439684  64.753894  -88.316678  -30.231875  -11.040608  70.827267  34.813744  -15.668223  16.51925  -4.267331  -11.179127  15.014403  111.117108  34.635837  36.414634  -7.923016  -14.73727  -113.065321  68.12924  21.973424  13.07849  16.239393  2.058291  7.42848  12.15538  1.742932  5.520671  
0.0  93.25843  0.0  -6.371547  -24.011094  -88.541915  41.899474  -27.487174  -28.217194  -1.703343  13.176489  18.450721  3.036952  1.139751  1.772878  -6.464887  12.905319  5.883341  -22.039968  1.259663  14.996604  -8.100001  -2.16589  -2.518511  1.434943  -1.243119  -0.309074  3.941264  -3.378149  -0.919011  3.941264  -3.378149  -0.919011  -24.234473  16.936759  -1.166318  -155.748152  65.035049  -89.736584  -30.453644  -11.469518  70.347718  34.813396  -15.639319  16.371647  -4.068121  -11.507974  14.815658  110.574339  36.155948  35.755347  -8.187847  -15.036091  -112.897046  68.252449  21.752832  12.937663  15.623398  1.977548  7.405561  11.69449  1.67412  5.507319  
0.0  93.25843  0.0  -6.14332  -23.681972  -88.355249  42.872221  -26.640428  -28.666839  -1.615251  13.48412  18.681498  3.324805  1.154207  1.727276  -6.642753  13.139238  6.048864  -22.563299  0.98879  14.401683  -8.180807  -2.046665  -2.407854  1.508468  -1.193146  -0.429003  4.147328  -3.232992  -1.247478  4.147328  -3.232992  -1.247478  -23.902902  17.012675  -1.058069  -158.567466  65.29134  -91.684142  -30.637309  -11.856422  69.875797  34.818386  -15.547394  16.21315  -3.529024  -11.802867  14.840276  110.389899  37.463092  35.069651  -8.789203  -15.382385  -112.515323  68.334319  21.451754  12.469278  15.273135  1.821277  7.596246  11.433374  1.557289  5.65537  
0.0  93.25843  0.0  -5.957044  -23.023521  -88.168164  43.537713  -25.786709  -29.043989  -1.399692  13.794754  18.943407  3.48056  1.13653  1.666635  -7.03967  13.410885  6.21733  -22.763452  0.829915  13.902054  -8.432953  -2.004535  -2.261918  1.668286  -1.113455  -0.534057  4.587355  -3.004823  -1.536797  4.587355  -3.004823  -1.536797  -24.292831  16.86974  -1.047773  -161.829905  65.385807  -93.970249  -30.757604  -12.208044  69.391462  34.847419  -15.414986  16.086962  -3.499139  -12.241507  14.854018  110.174827  38.967651  34.331059  -9.800581  -15.718901  -111.877871  68.48162  21.038759  11.69182  14.505143  1.608169  7.684977  10.859982  1.389767  5.72901  
